PathFileType	4	(X/Y/Z)	/home/alexbeat/data/kuopio-gait-dataset/01/mocap/calib_static_markers.trc
DataRate	CameraRate	NumFrames	NumMarkers	Units	OrigDataRate	OrigDataStartFrame	OrigNumFrames
100.000000	100.000000	4	70	mm	100.000000	131	211
Frame#	Time	Pelvis1			Pelvis2			Pelvis3			Pelvis4			Torso1			Torso2			Torso3			Torso4			RFemur1			RFemur2			RFemur3			RFemur4			LFemur1			LFemur2			LFemur3			LFemur4			RTibia1			RTibia2			RTibia3			RTibia4			LTibia1			LTibia2			LTibia3			LTibia4			LFoot1			LFoot2			LFoot3			RFoot1			RFoot2			RFoot3			*30			*31			*32			*33			*34			*35			*36			*37			*38			Pelvis_RFemur_score			Pelvis_LFemur_score			RFemur_RTibia_score			RFemur_RTibia_sara			LFemur_LTibia_score			LFemur_LTibia_sara			RKnee			LKnee			RTibia_RFoot_score			LTibia_LFoot_score			USERMO0			USERMO1			USERMO2			USERMO3			USERMO4			USERMO5			USERMO6			USERMO7			USERMO8			USERMO9			USERMO10			USERMO11			USERMO12			USERMO13			USERMO14			USERMO15			USERMO16			USERMO17			USERMO18			USERMO19			USERMO20			
		X1	Y1	Z1	X2	Y2	Z2	X3	Y3	Z3	X4	Y4	Z4	X5	Y5	Z5	X6	Y6	Z6	X7	Y7	Z7	X8	Y8	Z8	X9	Y9	Z9	X10	Y10	Z10	X11	Y11	Z11	X12	Y12	Z12	X13	Y13	Z13	X14	Y14	Z14	X15	Y15	Z15	X16	Y16	Z16	X17	Y17	Z17	X18	Y18	Z18	X19	Y19	Z19	X20	Y20	Z20	X21	Y21	Z21	X22	Y22	Z22	X23	Y23	Z23	X24	Y24	Z24	X25	Y25	Z25	X26	Y26	Z26	X27	Y27	Z27	X28	Y28	Z28	X29	Y29	Z29	X30	Y30	Z30	X31	Y31	Z31	X32	Y32	Z32	X33	Y33	Z33	X34	Y34	Z34	X35	Y35	Z35	X36	Y36	Z36	X37	Y37	Z37	X38	Y38	Z38	X39	Y39	Z39	X40	Y40	Z40	X41	Y41	Z41	X42	Y42	Z42	X43	Y43	Z43	X44	Y44	Z44	X45	Y45	Z45	X46	Y46	Z46	X47	Y47	Z47	X48	Y48	Z48	X49	Y49	Z49	X50	Y50	Z50	X51	Y51	Z51	X52	Y52	Z52	X53	Y53	Z53	X54	Y54	Z54	X55	Y55	Z55	X56	Y56	Z56	X57	Y57	Z57	X58	Y58	Z58	X59	Y59	Z59	X60	Y60	Z60	X61	Y61	Z61	X62	Y62	Z62	X63	Y63	Z63	X64	Y64	Z64	X65	Y65	Z65	X66	Y66	Z66	X67	Y67	Z67	X68	Y68	Z68	X69	Y69	Z69	X70	Y70	Z70	

132	1.31	306.5625	1027.703247070312	345.1170043945312	225.9763946533203	1030.468994140625	347.8298950195312	227.9042816162109	916.3887939453125	315.8304138183594	297.5946350097656	917.0647583007812	314.5236511230469	262.2094421386719	1423.146728515625	504.049285888672	91.11945343017578	1440.624267578125	448.7777404785157	435.5254211425781	1465.572021484375	442.7330017089845	253.7910766601562	1491.351928710938	370.6353149414063	91.14836120605469	647.4024047851562	398.2485961914062	101.3808898925781	545.1919555664062	394.2460632324219	89.77718353271484	592.3419189453125	422.6681823730469	85.09583282470703	591.5242919921875	459.8439636230469	434.3872985839844	668.77587890625	421.8667602539062	433.6057739257812	632.13330078125	483.2992553710939	423.4540100097656	563.1204833984375	422.8432617187501	434.5247497558594	634.1265258789062	441.2892456054689	93.05319213867188	363.6257934570312	377.30810546875	97.11422729492188	419.1620788574219	396.4661560058594	92.16362762451172	317.54443359375	391.6917114257812	109.5415344238281	366.5194091796875	338.8788146972656	426.418701171875	372.4949951171875	363.5472106933594	432.0947570800781	350.3598327636719	405.1689758300781	424.017333984375	285.2137145996094	412.8854675292969	424.7496032714844	394.6168823242188	430.2170104980469	335.2884216308594	28.12632369995115	320.4058532714844	377.7890319824219	23.26158332824703	555.297607421875	421.9696044921875	23.16836547851559	505.9805908203125	179.6650543212891	26.4873352050781	331.4469909667969	118.1918258666992	22.24408340454098	561.9985961914062	76.26519775390625	20.97684860229489	505.986328125	1498.233154296875	615.1044311523439	-1841.75	1584.322387695312	704.5462036132814	-1909.342895507812	1627.216918945312	662.8223266601564	-1802.682373046875	1628.116821289062	658.2636718750001	-1821.219970703125	-3557.0419921875	994.5120239257812	673.4311523437501	-3552.516357421875	971.5213012695312	669.4732666015626	1492.746337890625	602.4360351562501	-1874.324096679688	nan	nan	nan	nan	nan	nan	140.03515625	904.0603637695312	453.6005249023439	375.5812072753906	892.2650146484375	457.6781921386719	145.2467346191406	461.2526550292969	417.2984008789062	244.0133666992188	467.0414733886719	431.8462829589844	364.3575439453125	458.396484375	433.1883239746094	264.4779357910156	461.2777404785156	437.1583557128906	145.2469940185547	461.2529907226562	417.2980041503906	364.3580017089844	458.39599609375	433.18798828125	223.0334014892578	8.869439125061014	356.7513427734375	373.1539306640625	18.59288215637205	337.543212890625	-0.8910433650016785	-0.7366406321525573	-1.48214316368103	0.4305605888366699	0.6213587522506714	0.4426857233047485	0.1000000014901161	0.1000000014901161	-0.1000000014901161	-0.0004299753054510802	-1.385855793952942	-0.02922957576811322	0.3783490359783173	0.02485209144651887	0.4605613648891449	0.1000000014901161	0.1000000014901161	-0.1000000014901161	-1.074425220489502	-0.6336901187896727	-1.399133563041687	0.4275418817996979	0.3360178768634796	0.3938699662685394	0.1000000014901161	0.1000000014901161	-0.1000000014901161	-0.07585611939430237	-1.899684309959412	-2.507278919219971	0.2534341812133789	0.9916135668754578	0.3362527787685394	0.1000000014901161	0.1000000014901161	-0.1000000014901161	2.463285207748413	-2.239094495773315	0.2029828131198882	0.09418132156133652	0.5949665307998657	0.4050883054733276	0.1000000014901161	0.1000000014901161	-0.1000000014901161	-1.881893754005432	-0.02859887294471249	-2.469356060028076	0.1247073635458946	0.02323609031736848	0.4664773046970367	0.1000000014901161	0.1000000014901161	-0.1000000014901161	2.463644504547119	2.32912802696228	0.3341370522975924	0.0941394567489624	0.3667358160018921	0.3884782791137695	0.1000000014901161	0.1000000014901161	-0.1000000014901161	
133	1.32	306.5530700683594	1027.705932617188	345.1453552246094	225.9582824707031	1030.487915039062	347.8715209960939	227.8929138183594	916.41259765625	315.8598632812501	297.5754089355469	917.0573120117188	314.5963134765626	262.2093200683594	1423.1611328125	504.1037902832032	91.12959289550781	1440.656372070312	448.8348083496095	435.540771484375	1465.57568359375	442.7759094238282	253.8211822509766	1491.351440429688	370.6847534179689	91.12913513183594	647.398681640625	398.2996520996094	101.3722915649414	545.1903076171875	394.2611999511719	89.79210662841797	592.3333129882812	422.6835327148439	85.10002136230469	591.50341796875	459.8666076660157	434.3765563964844	668.78466796875	421.9078369140626	433.5675354003906	632.1594848632812	483.3245544433594	423.3987731933594	563.1165771484375	422.8665771484376	434.5301513671875	634.1329345703125	441.3218383789062	93.02934265136719	363.6099853515625	377.3335266113281	97.08987426757812	419.1629638671875	396.4966735839844	92.17935180664062	317.5246887207031	391.7061462402344	109.5325317382812	366.525390625	338.8795471191406	426.4146728515625	372.4999694824219	363.5819396972656	432.0838928222656	350.3822631835938	405.2130737304688	424.0057067871094	285.2202453613281	412.8758239746094	424.7449340820312	394.6185607910156	430.2437133789062	335.2898864746094	28.12411117553709	320.4289245605469	377.7804565429688	23.25407981872555	555.31591796875	421.9483947753906	23.17609596252438	505.9762268066406	179.6554565429688	26.49744987487791	331.45263671875	118.1965637207031	22.23945617675777	562.0010986328125	76.25392913818359	20.97907447814938	505.9951171875	1498.185913085938	614.9440307617189	-1841.715454101562	1584.31689453125	704.5645141601564	-1909.357299804688	nan	nan	nan	1628.115600585938	658.2768554687501	-1821.209228515625	nan	nan	nan	nan	nan	nan	nan	nan	nan	nan	nan	nan	nan	nan	nan	139.9949798583984	904.076171875	453.6684570312501	375.6008605957031	892.2889404296875	457.7201232910157	145.2327880859375	461.2545471191406	417.2955627441406	244.0012512207031	467.0662231445312	431.8218994140626	364.3060607910156	458.4173278808594	433.2222595214844	264.4264526367188	461.3224487304688	437.1745300292969	145.2330017089844	461.2550048828125	417.2959899902344	364.3059997558594	458.4169921875	433.2219848632812	223.0931701660156	8.895201683044412	356.7194213867188	373.1427917480469	18.61111259460447	337.51123046875	-0.8911184668540955	-0.736702799797058	-1.482671976089478	0.4305343925952911	0.6213685870170593	0.4427161812782289	0.1000000014901161	0.1000000014901161	-0.1000000014901161	-0.0001973895559785888	-1.385883569717407	-0.02906709536910065	0.3783395886421204	0.02485143020749089	0.4605737328529358	0.1000000014901161	0.1000000014901161	-0.1000000014901161	-1.07415497303009	-0.6335306167602538	-1.399298429489136	0.4275343120098114	0.3360292911529541	0.393889844417572	0.1000000014901161	0.1000000014901161	-0.1000000014901161	-0.07572999596595764	-1.900008916854858	-2.507347822189331	0.2534211575984955	0.9916254281997681	0.3362907171249391	0.1000000014901161	0.1000000014901161	-0.1000000014901161	2.463440656661987	-2.239069938659668	0.2022889256477355	0.09417538344860077	0.5949622988700867	0.4051139652729034	0.1000000014901161	0.1000000014901161	-0.1000000014901161	-1.881946921348572	-0.0284326914697884	-2.469320774078369	0.1247019842267036	0.02323866263031957	0.4664829671382904	0.1000000014901161	0.1000000014901161	-0.1000000014901161	2.463421821594238	2.329806327819824	0.3340252935886385	0.09413152188062668	0.3667250871658325	0.3884968459606171	0.1000000014901161	0.1000000014901161	-0.1000000014901161	
134	1.33	306.5225830078125	1027.7216796875	345.1681518554689	225.9634094238281	1030.492553710938	347.8981323242189	227.8628082275391	916.4196166992188	315.8997192382812	297.5724182128906	917.0610961914062	314.6559143066407	262.2359008789062	1423.1669921875	504.1601562500001	91.15608215332031	1440.7001953125	448.891815185547	435.5392456054688	1465.570068359375	442.8294677734376	253.8456420898438	1491.368530273438	370.7385253906251	91.12805938720703	647.4415893554688	398.3232116699219	101.3686599731445	545.230224609375	394.2799377441407	89.77983856201172	592.357666015625	422.7130432128907	85.08800506591797	591.5353393554688	459.8920593261719	434.3874206542969	668.7935180664062	421.9477233886719	433.5949096679688	632.1654052734375	483.3879699707032	423.4020385742188	563.1109008789062	422.8935241699219	434.542724609375	634.139404296875	441.3681030273439	93.03717803955078	363.6193542480469	377.3355712890625	97.09210968017578	419.1981201171875	396.5009155273438	92.14921569824219	317.5567626953125	391.7434387207031	109.5188751220703	366.5438842773438	338.8843994140625	426.4058532714844	372.5066528320312	363.599609375	432.0814819335938	350.3822631835938	405.2246704101562	424.02392578125	285.2402954101562	412.9161987304688	424.7467346191406	394.6237487792969	430.2620849609375	335.2800903320312	28.15606307983396	320.43212890625	377.7907104492188	23.27858543395993	555.3121337890625	421.9588012695312	23.19535064697263	505.9862365722656	179.6685028076172	26.5030937194824	331.458251953125	118.2162017822266	22.25776672363277	562.0073852539062	76.27098846435547	20.99588203430173	506.0032348632812	1498.275024414062	615.1566772460939	-1841.728881835938	1584.309936523438	704.5211181640626	-1909.349243164062	1627.417236328125	662.8828735351564	-1802.6494140625	1628.107055664062	658.2880859375001	-1821.229370117188	nan	nan	nan	nan	nan	nan	nan	nan	nan	nan	nan	nan	nan	nan	nan	139.9811859130859	904.10986328125	453.7210083007812	375.6047973632812	892.3079833984375	457.7977905273439	145.2371368408203	461.2821350097656	417.2969360351562	244.0057525634766	467.08154296875	431.8271789550782	364.3026428222656	458.4225158691406	433.2528686523438	264.4239196777344	461.3226928710938	437.2309265136719	145.2369995117188	461.2820129394531	417.2969970703125	364.3030090332031	458.4230041503906	433.2529907226562	223.0464630126953	8.889733314514139	356.7734985351562	373.1611022949219	18.6187000274658	337.5580444335938	-0.8912368416786194	-0.7363831996917723	-1.482602119445801	0.4305478036403656	0.6213724613189697	0.4427601397037507	0.1000000014901161	0.1000000014901161	-0.1000000014901161	-0.0002744302910286933	-1.385807752609253	-0.0291748698800803	0.3783432245254517	0.02487666904926297	0.4605768620967865	0.1000000014901161	0.1000000014901161	-0.1000000014901161	-1.074367046356201	-0.6335574984550475	-1.398966312408447	0.427536815404892	0.3360358774662018	0.3939141035079956	0.1000000014901161	0.1000000014901161	-0.1000000014901161	-0.0756685733795166	-1.900315999984741	-2.507190704345703	0.2534065544605255	0.9916346073150635	0.3363231718540193	0.1000000014901161	0.1000000014901161	-0.1000000014901161	2.46352219581604	-2.239217519760132	0.2023746818304061	0.09417010098695755	0.594998300075531	0.4051387310028077	0.1000000014901161	0.1000000014901161	-0.1000000014901161	-1.882011532783508	-0.02846400812268242	-2.469335079193115	0.1247185692191124	0.02325224876403806	0.4664896428585052	0.1000000014901161	0.1000000014901161	-0.1000000014901161	2.463644027709961	2.329346656799316	0.3336750864982607	0.09412378072738647	0.3667533099651337	0.3885091543197632	0.1000000014901161	0.1000000014901161	-0.1000000014901161	
135	1.34	306.517578125	1027.703247070312	345.1907958984376	225.9597015380859	1030.480346679688	347.9221801757812	227.8577728271484	916.4126586914062	315.9325866699219	297.5663757324219	917.0504760742188	314.6679382324219	262.2536010742188	1423.191772460938	504.2554626464845	91.18202209472656	1440.71240234375	448.9585266113282	435.5744323730469	1465.58642578125	442.8872680664063	253.8711700439453	1491.359741210938	370.7747497558595	91.15303039550781	647.4143676757812	398.3281860351562	101.3770599365234	545.201904296875	394.2882995605469	89.7989501953125	592.3434448242188	422.7545166015626	85.08453369140625	591.515869140625	459.9159240722657	434.3938598632812	668.7837524414062	421.9667358398439	433.5576171875	632.1336059570312	483.4031677246094	423.4265747070312	563.1083374023438	422.9470520019532	434.5494079589844	634.1508178710938	441.4069519042969	93.03565216064453	363.6145629882812	377.3623657226562	97.09300994873047	419.1692810058594	396.5498046875	92.08828735351562	317.5616455078125	391.7531433105469	109.5019912719727	366.5292358398438	338.9224853515625	426.3990173339844	372.5074462890625	363.6181640625	432.07958984375	350.3924255371094	405.2435913085938	424.0241394042969	285.2234497070312	412.9133911132812	424.7377319335938	394.6144714355469	430.2745971679688	335.2640075683594	28.15517234802244	320.4278564453125	377.7974243164062	23.26306343078609	555.3309936523438	421.9510803222656	23.16881370544431	505.9896240234375	179.6542663574219	26.48535537719725	331.4736633300781	118.2108383178711	22.24969863891598	562.0208740234375	76.24622344970703	20.97949600219724	506.0167541503906	1498.146118164062	615.0548706054689	-1841.713989257812	1584.295532226562	704.5140380859376	-1909.330200195312	nan	nan	nan	1628.107177734375	658.2481079101564	-1821.248168945312	nan	nan	nan	nan	nan	nan	nan	nan	nan	nan	nan	nan	nan	nan	nan	140.0158386230469	904.08837890625	453.7445678710939	375.5832824707031	892.2927856445312	457.7734069824219	145.2464599609375	461.2390441894531	417.3531188964844	244.0139465332031	466.9953308105469	431.9081420898439	364.3111267089844	458.40478515625	433.2721252441406	264.430419921875	461.2911987304688	437.2112426757812	145.2460021972656	461.239013671875	417.3529968261719	364.3110046386719	458.4049987792969	433.2720031738281	222.9189453125	8.843482017517069	356.7579345703125	373.1691589355469	18.61476516723631	337.5381164550781	-0.8907706141471863	-0.7371215820312499	-1.482834577560425	0.4305481016635895	0.6213641762733459	0.4427916109561921	0.1000000014901161	0.1000000014901161	-0.1000000014901161	-0.0004545616393443197	-1.38573944568634	-0.0294083524495364	0.3783375024795532	0.02486235089600083	0.4605828523635864	0.1000000014901161	0.1000000014901161	-0.1000000014901161	-1.074167728424072	-0.6334959268569945	-1.398928165435791	0.4275341928005219	0.3360337018966675	0.3939234614372253	0.1000000014901161	0.1000000014901161	-0.1000000014901161	-0.0758243128657341	-1.900244235992432	-2.50715446472168	0.2534023821353912	0.9916225075721741	0.3363478481769562	0.1000000014901161	0.1000000014901161	-0.1000000014901161	2.46338677406311	-2.239460706710815	0.2027345001697539	0.09418536722660065	0.5949748158454895	0.4051588475704194	0.1000000014901161	0.1000000014901161	-0.1000000014901161	-1.881999731063843	-0.02863139100372776	-2.469298839569092	0.1247037798166275	0.02323818579316136	0.466503769159317	0.1000000014901161	0.1000000014901161	-0.1000000014901161	2.464248657226562	2.32854175567627	0.3345252275466921	0.0941007137298584	0.3667410314083099	0.3885389566421509	0.1000000014901161	0.1000000014901161	-0.1000000014901161	
